<?xml version="1.0" encoding="utf-8"?>
<!-- Generator: Adobe Illustrator 22.0.1, SVG Export Plug-In . SVG Version: 6.00 Build 0)  -->
<svg version="1.1" id="Layer_1" xmlns="http://www.w3.org/2000/svg" xmlns:xlink="http://www.w3.org/1999/xlink" x="0px" y="0px"
	 viewBox="0 0 128.5 67.1" style="enable-background:new 0 0 128.5 67.1;" xml:space="preserve">
<style type="text/css">
	.st0{fill:#D15851;}
</style>
<g id="Layer_1_1_">
	<g>
		
			<rect x="8.4" y="31.6" transform="matrix(0.8192 -0.5736 0.5736 0.8192 -25.0704 17.8402)" class="st0" width="14.7" height="34.1"/>
		
			<rect x="-0.9" y="21.6" transform="matrix(0.5736 -0.8192 0.8192 0.5736 -17.0546 25.5016)" class="st0" width="33.7" height="15.1"/>
		<polygon class="st0" points="49.3,53.8 19.8,53.8 19.8,67.1 56.8,67.1 		"/>
		<polygon class="st0" points="49.6,24.4 19.1,24.4 19.1,11.1 57.1,11.1 		"/>
	</g>
	<g>
		<polygon class="st0" points="76.1,55.2 76.1,12.6 61.1,24 61.1,66.7 		"/>
		<polygon class="st0" points="61.4,48.8 93.7,25.1 93.7,43.7 61.1,67.1 		"/>
	</g>
	<g>
		<polygon class="st0" points="128.1,48.8 95.9,25.1 95.9,43.7 128.5,67.1 		"/>
		<polygon class="st0" points="128.5,55.2 113.4,44.1 113.4,0 128.5,10 		"/>
	</g>
</g>
</svg>
